<svg viewBox="0 0 32 32" xmlns="http://www.w3.org/2000/svg" xml:space="preserve" style="fill-rule:evenodd;clip-rule:evenodd;stroke-linejoin:round;stroke-miterlimit:2"><path style="fill:none" d="M0 0h32v32H0z"/><path style="fill:#5eb2ff" d="M10 4h12v12H10zM10 18h12v6H10zM11.714 25.429a.429.429 0 0 0-.428-.429h-.857a.429.429 0 0 0-.429.429v2.142c0 .237.192.429.429.429h.857a.429.429 0 0 0 .428-.429v-2.142ZM16.857 26.5a1.5 1.5 0 0 0-1.5-1.5h-.428a1.5 1.5 0 0 0 0 3h.428a1.5 1.5 0 0 0 1.5-1.5ZM22 26.5a1.5 1.5 0 0 0-1.5-1.5h-.429a1.501 1.501 0 0 0 0 3h.429a1.5 1.5 0 0 0 1.5-1.5Z"/></svg>