<svg viewBox="0 0 32 32" xmlns="http://www.w3.org/2000/svg" xml:space="preserve" style="fill-rule:evenodd;clip-rule:evenodd;stroke-linejoin:round;stroke-miterlimit:2"><path style="fill:none" d="M0 0h32v32H0z"/><path d="M26 18.5H6v7h20v-7Zm-14.286 2.429a.429.429 0 0 0-.428-.429h-.857a.429.429 0 0 0-.429.429v2.142c0 .237.192.429.429.429h.857a.429.429 0 0 0 .428-.429v-2.142ZM16.857 22a1.5 1.5 0 0 0-1.5-1.5h-.428a1.5 1.5 0 0 0 0 3h.428a1.5 1.5 0 0 0 1.5-1.5ZM22 22a1.5 1.5 0 0 0-1.5-1.5h-.429a1.501 1.501 0 0 0 0 3h.429A1.5 1.5 0 0 0 22 22Z" style="fill:#5eb2ff"/><path style="fill:#5eb2ff;fill-opacity:.2" d="M6 6.5h20v7H6z"/><path d="M11.714 8.929a.429.429 0 0 0-.428-.429h-.857a.429.429 0 0 0-.429.429v2.142c0 .237.192.429.429.429h.857a.429.429 0 0 0 .428-.429V8.929ZM16.857 10a1.5 1.5 0 0 0-1.5-1.5h-.428a1.5 1.5 0 0 0 0 3h.428a1.5 1.5 0 0 0 1.5-1.5ZM22 10a1.5 1.5 0 0 0-1.5-1.5h-.429a1.501 1.501 0 0 0 0 3h.429A1.5 1.5 0 0 0 22 10Z" style="fill:#5eb2ff"/></svg>